<?xml version="1.0" encoding="utf-8"?>
<!-- Generator: Adobe Illustrator 24.1.0, SVG Export Plug-In . SVG Version: 6.00 Build 0)  -->
<svg version="1.1" id="Capa_1" xmlns="http://www.w3.org/2000/svg" xmlns:xlink="http://www.w3.org/1999/xlink" x="0px" y="0px"
	 viewBox="0 0 528 528" style="enable-background:new 0 0 528 528;" xml:space="preserve">
<style type="text/css">
	.st0{fill:#4caf50;}
</style>
<g>
	<path class="st0" d="M490.59,159.86v-0.04l-40.72,0c0.8,3.47,1.41,6.97,1.86,10.5h37.86l0,0c15.35,0.13,27.75,12.61,27.75,27.99
		c0.01,15.38-12.4,27.86-27.75,27.99v10.49c21.15-0.13,38.25-17.32,38.25-38.49C527.83,177.48,511.27,160.52,490.59,159.86z"/>
	<path class="st0" d="M368.25,37.53h0.04l0,40.72c-3.47-0.8-6.97-1.41-10.5-1.86V38.52l0,0c-0.13-15.35-12.61-27.75-27.99-27.75
		c-15.38-0.01-27.86,12.4-27.99,27.75h-10.49c0.13-21.15,17.32-38.25,38.49-38.25C350.63,0.28,367.6,16.84,368.25,37.53z"/>
	<path class="st0" d="M278.64,114c-2.71,2.71-5.2,5.56-7.52,8.49c29.92,9.8,58.06,26.58,81.85,50.37
		c24.56,24.56,41.64,53.75,51.29,84.76c3.34-2.56,6.56-5.33,9.62-8.39c37.34-37.34,37.35-97.89,0.01-135.23S315.99,76.66,278.64,114
		z"/>
	<path class="st0" d="M60.02,188.23c-100.14,100.14-44.4,324.03-44.4,324.03s223.89,55.74,324.03-44.4
		c77.22-77.22,77.22-202.42,0-279.63C262.43,111.01,137.24,111.02,60.02,188.23z M290.53,420.41
		C224.97,485.97,78.4,449.48,78.4,449.48s-36.49-146.57,29.07-212.12c46.85-46.85,120.66-50.28,171.46-10.3l-18.14,20.57
		l-97.69,10.46l80.64,8.88l-47.52,53.88l-81.2,8.7l67.03,7.38l-63.65,72.17l72.13-63.38l7.34,66.68l8.64-80.72l54.21-47.64
		l8.87,80.54l10.44-97.51l20.73-18.21C340.8,299.65,337.4,373.54,290.53,420.41z"/>
</g>
</svg>
