<?xml version="1.0" encoding="utf-8"?>
<!-- Generator: Adobe Illustrator 24.1.0, SVG Export Plug-In . SVG Version: 6.00 Build 0)  -->
<svg version="1.1" id="Capa_1" xmlns="http://www.w3.org/2000/svg" xmlns:xlink="http://www.w3.org/1999/xlink" x="0px" y="0px"
	 viewBox="0 0 395.46 597" style="enable-background:new 0 0 395.46 597;" xml:space="preserve">
<style type="text/css">
	.st0{fill:#789447;}
</style>
<g>
	<path class="st0" d="M284.4,10.82l-0.03-0.03l-28.79,28.79c3.02,1.89,5.93,3.93,8.74,6.11l26.77-26.77l0,0
		c10.95-10.76,28.54-10.7,39.42,0.17s10.93,28.47,0.17,39.42l7.42,7.42c14.86-15.05,14.8-39.29-0.17-54.27
		C323.19-3.06,299.49-3.34,284.4,10.82z"/>
	<path class="st0" d="M111.39,10.82l0.03-0.03l28.79,28.79c-3.02,1.89-5.93,3.93-8.74,6.11L104.7,18.92l0,0
		C93.75,8.16,76.16,8.22,65.28,19.09s-10.93,28.47-0.17,39.42l-7.42,7.42c-14.86-15.05-14.8-39.29,0.17-54.27
		C72.59-3.06,96.3-3.34,111.39,10.82z"/>
	<path class="st0" d="M102.1,128.26c0,3.83,0.25,7.61,0.69,11.32c28.09-14.23,59.85-22.26,93.49-22.26
		c34.73,0,67.45,8.56,96.2,23.67c0.55-4.17,0.87-8.41,0.87-12.73c0-52.81-42.81-95.63-95.62-95.63S102.1,75.45,102.1,128.26z"/>
	<path class="st0" d="M0,335.34c0,141.62,197.73,260.52,197.73,260.52s197.73-118.9,197.73-260.52
		c0-109.2-88.53-197.73-197.73-197.73C88.52,137.61,0,226.14,0,335.34z M327.17,336.52c0,92.71-129.44,170.55-129.44,170.55
		S68.29,429.23,68.29,336.52c0-66.25,49.77-120.87,113.96-128.52l1.72,27.37l-61.68,76.47l63.3-50.74l4.5,71.7l-51.27,63.57
		l52.62-42.18l6.03,96.04l6.19-95.82L256,396.37l-50.97-63.19l4.65-72.02l63.22,50.68l-61.57-76.33l1.78-27.53
		C277.33,215.58,327.17,270.23,327.17,336.52z"/>
</g>
</svg>
