<?xml version="1.0" encoding="utf-8"?>
<!-- Generator: Adobe Illustrator 24.1.0, SVG Export Plug-In . SVG Version: 6.00 Build 0)  -->
<svg version="1.1" id="Capa_1" xmlns="http://www.w3.org/2000/svg" xmlns:xlink="http://www.w3.org/1999/xlink" x="0px" y="0px"
	 viewBox="0 0 179.83 103.83" style="enable-background:new 0 0 179.83 103.83;" xml:space="preserve">
<style type="text/css">
	.st0{fill:#635534;}
	.st1{fill:#B5A978;}
	.st2{fill:#B35055;}
	.st3{fill:#FFE4AF;}
	.st4{fill:#FFEFCA;}
	.st5{fill:#7C2A2F;}
	.st6{fill:#943D3E;}
	.st7{fill:#634A14;}
	.st8{fill:#515151;}
	.st9{fill:#A0A09F;}
	.st10{fill:#5F5F5E;}
	.st11{fill:#C4A861;}
	.st12{fill:#88BED1;}
	.st13{fill:#2F693B;}
	.st14{fill:#D7D7D7;}
</style>
<ellipse class="st0" cx="89.96" cy="52.19" rx="89.87" ry="51.63"/>
<ellipse class="st1" cx="89.96" cy="46.31" rx="89.87" ry="45.75"/>
<polygon class="st2" points="89.87,40.35 53.3,18.18 90.63,5.1 127.95,26.7 "/>
<g>
	<g>
		<polygon class="st3" points="90.63,35.61 127.95,56.45 128.09,26.76 90.63,5.1 		"/>
	</g>
</g>
<g>
	<polygon class="st4" points="53.3,46.67 89.87,70.85 127.95,56.45 127.95,26.7 90.63,7.19 53.3,18.18 	"/>
	<polygon class="st3" points="53.3,46.67 89.87,70.85 89.87,40.35 53.3,15.66 	"/>
</g>
<polygon class="st5" points="89.65,44.1 47.94,16.64 68.09,0 110.44,25.81 "/>
<polygon class="st3" points="128.09,33.4 108.12,27.86 110.38,25.86 128.09,27.04 "/>
<polygon class="st6" points="110.56,25.95 67.99,0 90.52,4.53 133.14,29.19 "/>
<polygon class="st7" points="114.91,61.41 106.01,64.54 106.01,44.19 114.91,41.06 "/>
<polygon class="st8" points="127.95,56.45 89.87,70.85 89.87,67.44 127.95,53.04 "/>
<polygon class="st9" points="121.2,62.28 109.44,66.6 104.68,63.51 116.44,59.19 "/>
<polygon class="st10" points="109.44,68.24 104.68,65.13 104.68,63.51 109.44,66.61 "/>
<polygon class="st10" points="121.2,63.92 109.44,68.24 109.44,66.61 121.2,62.3 "/>
<polygon class="st9" points="125.95,65.39 114.19,69.7 109.44,66.61 121.2,62.3 "/>
<polygon class="st10" points="114.19,71.35 109.44,68.24 109.44,66.61 114.19,69.72 "/>
<polygon class="st10" points="125.95,67.03 114.19,71.35 114.19,69.72 125.95,65.4 "/>
<polygon class="st9" points="121.2,60.56 109.44,64.95 104.68,61.81 116.44,57.42 "/>
<polygon class="st10" points="109.44,66.61 104.68,63.46 104.68,61.81 109.44,64.96 "/>
<polygon class="st10" points="121.2,62.23 109.44,66.61 109.44,64.96 121.2,60.58 "/>
<polygon class="st11" points="67.43,42.58 56.73,35.62 56.73,25.18 67.43,32.14 "/>
<polygon class="st12" points="66.67,40.94 57.51,34.98 57.49,26.71 66.67,32.71 "/>
<polygon class="st11" points="86.09,55.01 75.39,48.05 75.39,37.61 86.09,44.57 "/>
<polygon class="st12" points="85.33,53.48 76.17,47.52 76.15,39.14 85.33,45.14 "/>
<polygon class="st8" points="89.87,70.85 53.3,46.67 53.3,43.26 89.87,67.44 "/>
<circle class="st13" cx="31.8" cy="58.24" r="5.56"/>
<circle class="st13" cx="34.82" cy="54.8" r="5.32"/>
<circle class="st13" cx="36.52" cy="60.7" r="5.32"/>
<circle class="st13" cx="30.72" cy="57.68" r="5.56"/>
<circle class="st13" cx="145.6" cy="36.07" r="5.32"/>
<circle class="st13" cx="147.29" cy="41.97" r="5.32"/>
<circle class="st13" cx="141.5" cy="38.96" r="5.56"/>
<path class="st8" d="M89.87,92.06c5.38,0,10.65-0.24,15.76-0.7L9.57,25.75C3.45,31.93,0,38.92,0,46.31c0,0.4,0.01,0.79,0.03,1.19
	l61.96,42.32C70.77,91.27,80.14,92.06,89.87,92.06z"/>
<polygon class="st14" points="37.36,55.8 34.92,57.05 18.69,45.99 21.23,44.8 "/>
<polygon class="st14" points="70.39,78.4 67.95,79.65 51.72,68.59 54.26,67.4 "/>
</svg>
