<?xml version="1.0" encoding="utf-8"?>
<!-- Generator: Adobe Illustrator 24.1.0, SVG Export Plug-In . SVG Version: 6.00 Build 0)  -->
<svg version="1.1" id="Capa_1" xmlns="http://www.w3.org/2000/svg" xmlns:xlink="http://www.w3.org/1999/xlink" x="0px" y="0px"
	 viewBox="0 0 512 512" style="enable-background:new 0 0 512 512;" xml:space="preserve">
<style type="text/css">
	.st0{fill:#4DBA87;}
	.st1{fill:#FFFFFF;}
</style>
<rect x="0" y="0" class="st0" width="512" height="512"/>
<g>
	<path class="st1" d="M330.52,8.95l-0.03-0.03l-24.76,24.76c2.6,1.63,5.1,3.38,7.52,5.25l23.02-23.02l0,0
		c9.42-9.25,24.54-9.2,33.9,0.15s9.4,24.48,0.15,33.9l6.38,6.38c12.78-12.94,12.73-33.78-0.15-46.66
		C363.88-2.98,343.5-3.22,330.52,8.95z"/>
	<path class="st1" d="M181.76,8.95l0.03-0.03l24.76,24.76c-2.6,1.63-5.1,3.38-7.52,5.25l-23.02-23.02l0,0
		c-9.42-9.25-24.54-9.2-33.9,0.15s-9.4,24.48-0.15,33.9l-6.38,6.38c-12.78-12.94-12.73-33.78,0.15-46.66
		C148.4-2.98,168.79-3.22,181.76,8.95z"/>
	<path class="st1" d="M173.77,109.94c0,3.29,0.21,6.54,0.59,9.73c24.15-12.24,51.46-19.14,80.39-19.14c29.86,0,58,7.36,82.72,20.35
		c0.47-3.59,0.75-7.23,0.75-10.95c0-45.41-36.81-82.23-82.22-82.23S173.77,64.53,173.77,109.94z"/>
	<path class="st1" d="M85.98,287.99C85.98,409.76,256,512,256,512s170.02-102.24,170.02-224.01c0-93.9-76.12-170.02-170.02-170.02
		C162.1,117.97,85.98,194.1,85.98,287.99z M367.3,289.01c0,79.72-111.3,146.65-111.3,146.65s-111.3-66.93-111.3-146.65
		c0-56.96,42.79-103.93,97.99-110.51l1.48,23.53l-53.04,65.75l54.43-43.63l3.87,61.65l-44.08,54.66l45.25-36.27l5.18,82.58
		l5.32-82.39l45,36.08l-43.83-54.33l4-61.93l54.36,43.58l-52.94-65.63l1.53-23.67C324.44,185.02,367.3,232.01,367.3,289.01z"/>
</g>
</svg>
