<?xml version="1.0" encoding="utf-8"?>
<!-- Generator: Adobe Illustrator 24.1.0, SVG Export Plug-In . SVG Version: 6.00 Build 0)  -->
<svg version="1.1" id="Capa_1" xmlns="http://www.w3.org/2000/svg" xmlns:xlink="http://www.w3.org/1999/xlink" x="0px" y="0px"
	 viewBox="0 0 179.74 103.27" style="enable-background:new 0 0 179.74 103.27;" xml:space="preserve">
<style type="text/css">
	.st0{fill:#635534;}
	.st1{fill:#509148;}
	.st2{fill:#4C3C1D;}
	.st3{fill:#2F693B;}
	.st4{fill:#325F39;}
</style>
<ellipse class="st0" cx="89.87" cy="51.63" rx="89.87" ry="51.63"/>
<ellipse class="st1" cx="89.87" cy="45.75" rx="89.87" ry="45.75"/>
<ellipse transform="matrix(0.562 -0.8271 0.8271 0.562 -21.9466 72.7958)" class="st2" cx="57.77" cy="57.12" rx="3.79" ry="43.2"/>
<ellipse transform="matrix(0.562 -0.8271 0.8271 0.562 0.6669 93.3956)" class="st2" cx="88.52" cy="46.07" rx="3.79" ry="43.2"/>
<ellipse transform="matrix(0.562 -0.8271 0.8271 0.562 22.5702 114.4808)" class="st2" cx="119.39" cy="35.93" rx="3.79" ry="43.2"/>
<circle class="st3" cx="41.98" cy="38.93" r="9.09"/>
<ellipse transform="matrix(0.2712 -0.9625 0.9625 0.2712 26.0489 116.372)" class="st3" cx="89.87" cy="40.98" rx="6.95" ry="2.08"/>
<ellipse transform="matrix(0.866 -0.5 0.5 0.866 -9.3297 48.1523)" class="st3" cx="85.19" cy="41.49" rx="2.53" ry="6.95"/>
<ellipse transform="matrix(0.2712 -0.9625 0.9625 0.2712 26.5683 99.5277)" class="st3" cx="79.01" cy="32.22" rx="6.95" ry="2.08"/>
<ellipse transform="matrix(0.866 -0.5 0.5 0.866 -6.4025 41.5464)" class="st3" cx="74.33" cy="32.72" rx="2.53" ry="6.95"/>
<ellipse transform="matrix(0.2712 -0.9625 0.9625 0.2712 26.1686 133.3938)" class="st3" cx="101.17" cy="49.42" rx="6.95" ry="2.08"/>
<ellipse transform="matrix(0.866 -0.5 0.5 0.866 -12.0317 54.9319)" class="st3" cx="96.49" cy="49.92" rx="2.53" ry="6.95"/>
<ellipse transform="matrix(0.2712 -0.9625 0.9625 0.2712 28.1689 149.4599)" class="st3" cx="112.78" cy="56.13" rx="6.95" ry="2.08"/>
<ellipse transform="matrix(0.866 -0.5 0.5 0.866 -13.8325 61.6358)" class="st3" cx="108.1" cy="56.63" rx="2.53" ry="6.95"/>
<ellipse transform="matrix(0.2712 -0.9625 0.9625 0.2712 -5.0718 120.9692)" class="st3" cx="77.34" cy="63.83" rx="6.95" ry="2.08"/>
<ellipse transform="matrix(0.866 -0.5 0.5 0.866 -22.432 44.9511)" class="st3" cx="72.66" cy="64.33" rx="2.53" ry="6.95"/>
<ellipse transform="matrix(0.2712 -0.9625 0.9625 0.2712 -5.5624 102.5197)" class="st3" cx="64.92" cy="54.93" rx="6.95" ry="2.08"/>
<ellipse transform="matrix(0.866 -0.5 0.5 0.866 -19.6467 37.5445)" class="st3" cx="60.24" cy="55.43" rx="2.53" ry="6.95"/>
<ellipse transform="matrix(0.2712 -0.9625 0.9625 0.2712 60.8146 160.9604)" class="st3" cx="136.7" cy="40.32" rx="6.95" ry="2.08"/>
<ellipse transform="matrix(0.866 -0.5 0.5 0.866 -2.7247 71.4766)" class="st3" cx="132.01" cy="40.82" rx="2.53" ry="6.95"/>
<ellipse transform="matrix(0.2712 -0.9625 0.9625 0.2712 56.7994 140.4545)" class="st3" cx="121.15" cy="32.72" rx="6.95" ry="2.08"/>
<ellipse transform="matrix(0.866 -0.5 0.5 0.866 -1.007 62.684)" class="st3" cx="116.47" cy="33.22" rx="2.53" ry="6.95"/>
<ellipse transform="matrix(0.2712 -0.9625 0.9625 0.2712 58.4128 118.1432)" class="st3" cx="107.22" cy="20.5" rx="6.95" ry="2.08"/>
<ellipse transform="matrix(0.866 -0.5 0.5 0.866 3.2377 54.0835)" class="st3" cx="102.54" cy="21" rx="2.53" ry="6.95"/>
<ellipse transform="matrix(0.2712 -0.9625 0.9625 0.2712 55.77 101.2285)" class="st3" cx="94.73" cy="13.79" rx="6.95" ry="2.08"/>
<ellipse transform="matrix(0.866 -0.5 0.5 0.866 4.9204 46.9388)" class="st3" cx="90.05" cy="14.29" rx="2.53" ry="6.95"/>
<circle class="st4" cx="48.8" cy="44.05" r="6.44"/>
<circle class="st3" cx="51.07" cy="44.96" r="7.35"/>
</svg>
