<?xml version="1.0" encoding="utf-8"?>
<!-- Generator: Adobe Illustrator 24.1.0, SVG Export Plug-In . SVG Version: 6.00 Build 0)  -->
<svg version="1.1" id="Capa_1" xmlns="http://www.w3.org/2000/svg" xmlns:xlink="http://www.w3.org/1999/xlink" x="0px" y="0px"
	 viewBox="0 0 1051 1053" style="enable-background:new 0 0 1051 1053;" xml:space="preserve">
<style type="text/css">
	.st0{clip-path:url(#SVGID_2_);}
	.st1{fill:#111111;}
	.st2{fill:#E7F6EC;}
	.st3{opacity:0.18;fill:#FFFFFF;}
	.st4{fill:#81C784;}
	.st5{fill:none;}
	.st6{fill:#219653;}
	.st7{fill:#158F41;}
	.st8{fill:#282828;}
	.st9{fill:#444444;}
	.st10{fill:#A53737;}
	.st11{fill:#FFFFFF;}
	.st12{fill:#59667F;}
	.st13{fill:none;stroke:#444444;stroke-width:2;stroke-miterlimit:10;}
	.st14{fill:none;stroke:#444444;stroke-width:4;stroke-miterlimit:10;}
	.st15{fill:#CEB59E;}
	.st16{fill:none;stroke:#CC9277;stroke-width:3;stroke-miterlimit:10;}
	.st17{fill:#CC9277;}
	.st18{fill:#F4F4F4;}
	.st19{fill:#219653;stroke:#FFFFFF;stroke-width:4;stroke-miterlimit:10;}
</style>
<g>
	<defs>
		<circle id="SVGID_1_" cx="525.5" cy="525.5" r="525.5"/>
	</defs>
	<use xlink:href="#SVGID_1_"  style="overflow:visible;fill:#219653;"/>
	<clipPath id="SVGID_2_">
		<use xlink:href="#SVGID_1_"  style="overflow:visible;"/>
	</clipPath>
	<g class="st0">
		<g>
			<path class="st1" d="M806.41,1052.73h-603.6c-17.95,0-32.5-14.55-32.5-32.5V-262.5c0-17.95,14.55-32.5,32.5-32.5h603.6
				c17.95,0,32.5,14.55,32.5,32.5v1282.73C838.91,1038.18,824.36,1052.73,806.41,1052.73z"/>
			<rect x="221.25" y="-198.11" class="st2" width="565.94" height="1095.03"/>
			<path class="st3" d="M170.31,526.24v-736.08c0-47.04,38.13-85.17,85.17-85.17h271.39"/>
		</g>
		<g>
			<path class="st4" d="M785.77,3.28v28.93c0,0-33.91,22.28-31.42,49.38c24.11-4.82,33.24,0.5,33.24,0.5l1.68,441.31
				c0,0-63.54,190.46-199.64,232.83c-112.41,35-130.59,75.81-130.59,75.81s-52.14-118.37-78.74-160.93s-33.68-249.66,62.51-341.73
				s55.19-3.87,55.19-3.87l16.13-10.74c0,0,25.27,1.07,30.92-8.91c5.65-9.97,10.64-16.79,9.14-35.91c0,0,24.37-8.43,31.25-20.45
				c6.89-12.02,27.06-24.9,11.1-42.19s2.93-7.79,2.93-7.79s5.26-8.54,4.26-19.85c-1-11.3,5.05-28.93-4.79-39.9
				s-22.47-24.27-22.47-24.27s64.5-42.89,95.09-47.55c30.59-4.65,60.02,0,60.02,0S737.4,40.19,785.77,3.28z"/>
			<path class="st5" d="M372.97,634.16c0,0,3.33,48.25,25.27,75.51c21.94,27.26,49.87,103.07,49.87,103.07s-9.31-57.19-15.29-70.49
				c-5.98-13.3-28.59-35.24-37.9-58.52s-13.96-33.25-15.96-52.53L372.97,634.16z"/>
			<path class="st6" d="M789.26,506.85v25.27c0,0-40.48,122.44-87.11,165.58c-27.83,25.74-93.96,62.24-151.62,72.31l0,0
				c0,0,77.8-44.13,118.45-79.79C715.04,649.81,766.65,570.69,789.26,506.85z"/>
			<path class="st6" d="M787.63,95.88c0,0-44.05,6.67-64.96,34.56c-28.62,38.16-21.52,52.58-19.34,62.86
				c2.99,14.08,23.58,18.76,30.73,29.59c12.41,18.81,12.47,28.93,12.47,28.93s-12.97-24.77-38.9-24.44
				c-24.98,0.32-33.75,4.82-45.39,16.46c-13.89,13.89-25.93,47.57-20.95,70.92s17.46,41.88,23.94,45.62s31.42,21.61,38.15,38.57
				s5.24,18.7,5.24,18.7s-10.97-38.4-53.86-47.13s-57.36,32.42-57.36,32.42s-40.04,85.72-28.26,112.72
				c7.32,16.79,15.29,21.11,19.62,24.77s26.6,13.63,34.91,23.94s12.63,29.59,12.63,29.59s-33.91-38.57-62.51-35.58
				c-28.59,2.99-53.55,46.55-53.55,46.55s-13.28,26.93-19.27,48.54c-5.98,21.61-15.63,64.84-15.63,64.84s-0.33-28.93,3.99-47.55
				s27.93-108.06,27.93-108.06s5.92-23.27-20.98-30.59c-26.9-7.31-50.84,2.66-50.84,2.66s14.3-13.3,25.27-15.63
				c10.97-2.33,41.56,0,41.56,0s9.31,4.32,17.29-4.32s48.21-112.72,48.21-119.03s18.75-30.04-6.69-47
				c-10.78-7.18-44.52-8.48-44.52-8.48l4.24-4.24c0,0,19.08-8.48,48.76-1.06c6.2,1.55,16.83-6.72,27.47-22.68
				s41.89-76.72,39.23-90.02c-2.66-13.3-2.99-15.05-8.64-19.37c-5.65-4.32-21.94-7.98-30.59-1.66s2.33-13.3,2.33-13.3
				s38.24,4.99,53.53-9.97c15.29-14.96,47.88-74.21,47.88-74.21s12.63-22.55,9.64-28.87c-2.99-6.32-5.98-7.31-5.98-7.31l-1.34-1.41
				l27.94,2.78c0,0,11.52-13.97,22.51-26.52c7.12-8.13,14.33-12.67,17.72-15.41c1.08-0.87,3.98-3.18,4.66-3.32c0,0,0,10.97,0,10.97
				s-20.05,11.08-26.7,25.71s-4.22,20.5-4.22,20.5s9.31-2.66,18.62-1.99c9.31,0.66,13.95,3.16,13.95,3.16L787.63,95.88z"/>
			<path class="st6" d="M380.54,440.1c2.75-4.7,11.22-14.14,18.37-20.7c2.34-2.14,11.75-10.5,27.93-16.46
				c12.66-4.66,21.78-5.03,28.43-5.98c22.57-3.25,43.48-23.28,85.29-63.34c13.68-13.11,19.05-19.41,19.95-28.43
				c0.84-8.41-2.38-17.35,3.49-24.94c2.31-2.99,4.96-4.38,6.98-5.49c18.43-10.05,28.92-15.77,34.91-23.94
				c10.07-13.72,8.22-35.4,7.98-37.9c-0.22-2.34-0.97-8.17,0-15.96c0.86-6.91,2.61-11.8,2.99-12.97
				c5.76-17.82-3.43-51.42-17.46-54.36c-5.27-1.11-11.55,2.05-11.47,2.49c0.06,0.34-0.94-0.33,2.08,0.58
				c9.03,2.72,19.45,24.89,12.63,42.56c-5.15,13.35-16.19,20.47-21.7,23.44c0,0,26,9.48,17.99,29.92s-45.63,39.9-45.63,39.9
				s1.21,19.08-3.5,28.75c-2.09,4.28-10.75,19.87-34.69,16.38c-23.94-3.49-17.12-1.75-17.12-1.75l-96.09,64.59
				c0,0-0.39-9.59-1.96,3.32c-0.36,2.93-12.66,28.55-15.49,42.9C381.45,437.85,380.54,440.1,380.54,440.1z"/>
		</g>
		<g>
			<path class="st4" d="M223.3-191.4v15.59c0,0,18.28,12.01,16.93,26.61c-12.99-2.6-17.91,0.27-17.91,0.27l-0.9,237.83
				c0,0,34.24,102.64,107.59,125.48c60.58,18.86,70.38,40.86,70.38,40.86s28.1-63.79,42.44-86.73
				c14.34-22.94,18.15-134.55-33.69-184.17s-29.75-2.09-29.75-2.09l-8.69-5.79c0,0-13.62,0.58-16.66-4.8s-5.73-9.05-4.93-19.35
				c0,0-13.13-4.54-16.84-11.02c-3.71-6.48-14.58-13.42-5.98-22.73s-1.58-4.2-1.58-4.2s-2.83-4.6-2.3-10.7
				c0.54-6.09-2.72-15.59,2.58-21.5c5.3-5.91,12.11-13.08,12.11-13.08s-34.76-23.12-51.24-25.62c-16.49-2.51-32.34,0-32.34,0
				S249.36-171.51,223.3-191.4z"/>
			<path class="st5" d="M445.76,148.59c0,0-1.79,26-13.62,40.7s-26.88,55.55-26.88,55.55s5.02-30.82,8.24-37.99
				c3.23-7.17,15.41-18.99,20.43-31.54c5.02-12.54,7.53-17.92,8.6-28.31L445.76,148.59z"/>
			<path class="st6" d="M221.42,79.98V93.6c0,0,21.82,65.99,46.95,89.24c15,13.87,50.64,33.54,81.71,38.97l0,0
				c0,0-41.93-23.78-63.84-43C261.41,157.03,233.6,114.39,221.42,79.98z"/>
			<path class="st6" d="M222.29-141.5c0,0,31.1,11.03,36.47,29.03c2.27,7.6,10.14,17.93,8.96,23.47
				c-1.61,7.59-13.3,9.74-16.56,15.95c-5.64,10.75-6.72,15.59-6.72,15.59s6.99-13.35,20.97-13.17c13.46,0.17,18.19,2.6,24.46,8.87
				c7.49,7.49,13.98,25.64,11.29,38.22s-9.41,22.57-12.9,24.59c-3.49,2.02-16.93,11.65-20.56,20.79
				c-3.63,9.14-2.82,10.08-2.82,10.08s5.91-20.7,29.03-25.4s30.91,17.47,30.91,17.47s21.58,46.2,15.23,60.75
				c-3.95,9.05-8.24,11.38-10.57,13.35c-2.33,1.97-14.34,7.35-18.82,12.9c-4.48,5.55-6.81,15.95-6.81,15.95s18.28-20.79,33.69-19.17
				s28.86,25.09,28.86,25.09s7.16,14.51,10.38,26.16s8.42,34.94,8.42,34.94s0.18-15.59-2.15-25.62
				c-2.33-10.03-15.05-58.24-15.05-58.24s-3.19-12.54,11.31-16.49c14.5-3.94,27.4,1.43,27.4,1.43s-7.71-7.17-13.62-8.42
				c-5.91-1.25-22.4,0-22.4,0s-5.02,2.33-9.32-2.33c-4.3-4.66-25.98-60.75-25.98-64.15s-2.87-23.29,2.33-27.95
				s17.02-8.78,17.02-8.78l-2.68-3.4c0,0-13.63,8.06-17.03,8.6s-9.68-4.84-15.41-13.44c-5.73-8.6-22.58-41.35-21.14-48.52
				c1.43-7.17,1.61-8.11,4.66-10.44c3.05-2.33,11.83-4.3,16.49-0.9c4.66,3.4-1.25-7.17-1.25-7.17s-20.61,2.69-28.85-5.38
				c-8.24-8.06-25.8-39.99-25.8-39.99s-6.81-12.15-5.2-15.56c1.61-3.4,3.23-3.94,3.23-3.94l0.72-0.76l-15.06,1.5
				c0,0-6.21-7.53-12.13-14.29c-3.84-4.38-7.72-6.83-9.55-8.31c-0.58-0.47-2.15-1.72-2.51-1.79c0,0,0,5.91,0,5.91
				s10.81,5.97,14.39,13.86c3.58,7.88,2.27,11.05,2.27,11.05s-5.02-1.43-10.03-1.08c-5.02,0.36-7.52,1.7-7.52,1.7L222.29-141.5z"/>
			<path class="st7" d="M344.7-28.7c-0.45-4.53,1.29-9.35-1.88-13.44c-1.25-1.61-2.67-2.36-3.76-2.96
				c-9.93-5.42-15.59-8.5-18.82-12.9c-5.43-7.39-4.43-19.08-4.3-20.43c0.12-1.26,0.52-4.4,0-8.6c-0.46-3.73-1.41-6.36-1.61-6.99
				c-3.1-9.6,1.85-27.71,9.41-29.3c2.84-0.6,6.22,1.1,6.18,1.34c-0.03,0.18,0.51-0.18-1.12,0.31c-4.87,1.47-10.48,13.41-6.81,22.94
				c2.77,7.2,8.72,11.03,11.69,12.63c0,0-14.01,5.11-9.69,16.13s24.59,21.5,24.59,21.5s-0.65,10.28,1.89,15.5
				c1.12,2.31,5.79,10.71,18.69,8.83"/>
		</g>
		<g>
			<polygon class="st8" points="571.2,146.34 555.9,179.67 543.03,212.09 532.94,234.38 483.89,187.17 528.97,155.65 551,130.89 			
				"/>
			<path class="st9" d="M488.4,182c0,0,45.39,24.94,51.66,46.12c0,0-0.71-2.82-0.29-0.73c2.67,13.36,5.88,36.89-17.12,63.34
				c-26.6,30.59-70.49,82.46-70.49,82.46l-27.93,7.98l-18.62,10.64c0,0-51.87-42.56-49.21-87.78
				C359.06,258.8,388.95,223.23,488.4,182z"/>
			<path class="st9" d="M491.03,179.67l30.79-19.62c0,0,17.24,7.15,25.44,16.62c-1.44,11.14-22.94,26.27-22.94,26.27L491.03,179.67z
				"/>
			<path class="st10" d="M522.98,158.39c7.81,2.49,28.56,17.22,31.75,23.61c1.75,3.49,19.68-14.35,13.34-24.06
				c-5.86-8.98-10.1-15.71-25.05-20.32C529.38,133.4,522.98,158.39,522.98,158.39z"/>
			<path class="st9" d="M555.73,107.18c9.85,0,34.91,3.99,31.42,26.43c-3.49,22.44-18.51,20.95-18.51,20.95s-6.42-13.51-24.88-18.22
				C543.76,136.34,545.89,107.18,555.73,107.18z"/>
			<path class="st10" d="M549.42,179c-5.98,11.8-23.72,25.88-23.72,25.88s11.42,10.28,13.91,17.43l20.12-25.02
				C559.98,197.36,557.4,183.83,549.42,179z"/>
			<path class="st11" d="M491.03,231.37c0,0-77.44,60.85-74.45,92.77C419.58,356.06,491.03,231.37,491.03,231.37z"/>
			<path class="st12" d="M539.77,227.38c0,0,9.46,21.14-6.47,48.52c-19.45,33.42-69.84,110.79-123.06,113.26
				C479.07,317.93,539.77,227.38,539.77,227.38z"/>
			<path class="st9" d="M585.82,123.81c0,0,9.64,0.17,20.7-13.13c0,0,3.74,22.11-16.87,23.44
				C571.72,135.27,585.82,123.81,585.82,123.81z"/>
			<path class="st9" d="M575.62,112.67c0,0,6.92-9.85,17.46-8.79c0,0-10.35,8.98-11.6,13.72S575.62,112.67,575.62,112.67z"/>
			<path class="st13" d="M548.04,121.4c-2.97-5.87-12.37-27.54-9.48-46.88c1.73-11.56,6.22-20.25,9.48-25.44"/>
			<path class="st13" d="M553.24,111.67c0,0-9.23-26.68,26.43-48.63"/>
			<polyline class="st13" points="527.17,287.06 532.33,292.72 514.34,327.96 541.59,348.91 538.02,363.54 			"/>
			<polyline class="st13" points="474.44,350.66 482.75,361.88 474.44,380.17 492.72,413.42 486.74,422.73 			"/>
			<polyline class="st13" points="552.17,208.6 552.17,214.91 582.5,214.91 588.82,246.17 601.78,255.15 			"/>
			<polyline class="st13" points="562.22,187.98 576.98,179.67 593.67,183.54 			"/>
		</g>
		<g>
			<polyline class="st14" points="315.25,114.58 315.25,82 347.84,82 			"/>
			<polyline class="st14" points="661.38,82 693.97,82 693.97,114.58 			"/>
			<polyline class="st14" points="693.97,446.39 693.97,478.97 661.38,478.97 			"/>
			<polyline class="st14" points="347.84,478.97 315.25,478.97 315.25,446.39 			"/>
		</g>
		<g>
			<path class="st15" d="M843.32,464.29c0,0,187.03,260.76,199.25,304.32c12.22,43.56,0.9,131.1-4.74,158.27
				s-46.98,125.74-46.98,125.74H811.71c0,0,18.58-25,27.09-75.87s5.51-65.83,5.51-65.83s-22.94-1-28.93-6.98
				c-5.98-5.98-19.62-14.96-19.62-14.96s-41.06,29.76-74.98,33.75s-64.82,0.65-76.31-2.99c-27.76-8.81-35.58-24.94-35.58-24.94
				s-16.24-39.84,1-58.35c11.35-12.19,16.96-16.04,29.92-23.03c12.97-6.98,89.77-37.82,106.73-48.46
				c16.96-10.64,54.86-37.57,68.83-36.57c13.96,1,31.92,9.97,31.92,9.97L843.32,464.29z"/>
			<path class="st16" d="M800.42,751.44c0,0-9.31,10.85,0,50.08"/>
			<path class="st16" d="M821.04,751.44c0,0,10.49,16.83,6.91,50.08"/>
			<polygon class="st17" points="914.98,775.77 839.06,736.33 839.06,458.55 846.95,469.37 846.95,731.53 893.19,760.96 			"/>
			<path class="st17" d="M634.34,910.42c0,0,59.85,9.14,85.29,2.16c25.44-6.98,76.66-37.07,76.66-37.07s28.58,19.76,38.55,20.2
				c9.97,0.44,24.11-3.11,24.11-3.11l3.82,13.33l-10.97,2.99c0,0-0.32,17.58-1.83,48.88c-2.33,48.21-15,77.87-19.74,83.6
				s-13.96,10.97-18.95,10.97s-0.62,0.24-0.62,0.24s15.29-18.9,22.26-50.88c4.61-21.19,5.3-22.26,5.89-48.68
				c0.61-27.59,0.28-42.27,0.28-42.27s-13.22-0.71-20.95-4.96c-13.36-7.34-22.36-16.86-22.36-16.86s-31.16,21.07-50.21,27.6
				c-19.12,6.56-42.18,12.94-68.83,10.97c-26.64-1.96-54.53-18.62-54.53-18.62L634.34,910.42z"/>
		</g>
		<g>
			<polygon class="st17" points="154.4,621.4 170.2,593.71 170.2,917.84 168.51,946.33 149.06,909.92 			"/>
			<path class="st15" d="M170.2,593.71c0,0-170.43,274.81-170.43,318.2c0,43.39,42.56,160.93,42.56,160.93l206.98,4.16
				c0,0,72.74-154.28,108.23-201.99c35.49-47.71,35.54-40.4,35.54-60.35c-0.01-20.35,2.03-61.7-31.55-73.32
				c-43.22-14.96-55.64,14.32-77.17,33.58c-60.2,53.86-119.01,163.76-123.66,147.63C156.04,906.43,170.2,593.71,170.2,593.71z"/>
			<path class="st16" d="M242.49,838.6c0,0,23.94,1.99,32.25,29.09"/>
			<path class="st16" d="M228.53,861.04c0,0,1.66,21.28,28.59,23.94"/>
			<path class="st17" d="M268.43,1038.6c0,0,63.35-128.03,80.05-145.09c14.53-14.84,40.31-37.45,44.97-60.06
				c4.65-22.61-2.46-53.77-2.46-53.77s0.89,45.75-8.18,58.93c-22.66,32.92-39.29,40.96-51.31,52.04
				C319.51,901.69,268.43,1038.6,268.43,1038.6z"/>
		</g>
		<g>
			<path class="st18" d="M361.53,746c-15.46-6.48-38.98-2.73-38.98-2.73s-27.85,24.01-47.8,54.43c0,0,38.57,6.15,54.36,40.9
				c0,0,29.09-11.14,43.89-28.93c3.28-3.95,14.46-22.94,14.96-30.92C388.46,770.77,376.99,752.48,361.53,746z"/>
			<path class="st18" d="M274.74,797.7c0,0,3.49,13.97,20.95,26.43c17.46,12.47,33.42,14.46,33.42,14.46
				C313.31,803.85,274.74,797.7,274.74,797.7z"/>
		</g>
		<g>
			<path class="st18" d="M690.04,801.52c-27.26,0-79.47,35.74-81.13,42.64c-1.66,6.9-6.98,45.8,14.96,49.13
				c19.71,2.99,62.74-26.74,71.3-32.82C674.6,832.22,690.04,801.52,690.04,801.52z"/>
			<path class="st18" d="M690.04,801.52c0,0-15.43,30.69,5.13,58.95c0.97-0.69,1.52-1.09,1.52-1.09s0-0.06,0.01-0.17
				C696.86,855.81,699.41,801.52,690.04,801.52z"/>
		</g>
		<circle class="st19" cx="495.31" cy="790.28" r="62.01"/>
	</g>
</g>
</svg>
